<svg xmlns="http://www.w3.org/2000/svg" viewBox="0 0 1200 320" width="100%" height="auto" preserveAspectRatio="xMidYMid slice">
  <defs>
    <linearGradient id="sky" x1="0" y1="0" x2="0" y2="1">
      <stop offset="0" stop-color="#06081A"/>
      <stop offset="0.55" stop-color="#0B1026"/>
      <stop offset="1" stop-color="#131a3f"/>
    </linearGradient>
  </defs>
  <rect width="1200" height="320" fill="url(#sky)"/>
  <circle cx="900" cy="80" r="220" fill="#C9A86A" opacity="0.1"/><circle cx="250" cy="260" r="180" fill="#3a4a8c" opacity="0.18"/><circle cx="1050" cy="250" r="160" fill="#8c6a3a" opacity="0.08"/>
  <circle cx="267.9" cy="133.0" r="0.89" fill="#F5E6C8" opacity="0.67"/>
  <circle cx="35.8" cy="223.5" r="0.47" fill="#F5E6C8" opacity="0.58"/>
  <circle cx="31.8" cy="222.9" r="0.74" fill="#F5E6C8" opacity="0.42"/>
  <circle cx="707.1" cy="6.7" r="0.95" fill="#F5E6C8" opacity="0.30"/>
  <circle cx="186.6" cy="139.7" r="1.07" fill="#F5E6C8" opacity="0.49"/>
  <circle cx="111.3" cy="220.1" r="0.78" fill="#F5E6C8" opacity="0.74"/>
  <circle cx="643.5" cy="19.9" r="0.74" fill="#F5E6C8" opacity="0.76"/>
  <circle cx="55.0" cy="188.7" r="0.48" fill="#F5E6C8" opacity="0.46"/>
  <circle cx="95.8" cy="191.6" r="0.52" fill="#F5E6C8" opacity="0.65"/>
  <circle cx="437.8" cy="80.9" r="0.60" fill="#F5E6C8" opacity="0.42"/>
  <circle cx="320.4" cy="141.2" r="0.79" fill="#F5E6C8" opacity="0.39"/>
  <circle cx="196.1" cy="107.1" r="0.81" fill="#F5E6C8" opacity="0.61"/>
  <circle cx="38.5" cy="194.9" r="0.55" fill="#F5E6C8" opacity="0.45"/>
  <circle cx="253.2" cy="177.5" r="0.55" fill="#F5E6C8" opacity="0.66"/>
  <circle cx="474.8" cy="42.0" r="1.03" fill="#F5E6C8" opacity="0.55"/>
  <circle cx="317.9" cy="113.3" r="0.51" fill="#F5E6C8" opacity="0.62"/>
  <circle cx="479.3" cy="70.9" r="0.71" fill="#F5E6C8" opacity="0.35"/>
  <circle cx="56.5" cy="279.1" r="0.39" fill="#F5E6C8" opacity="0.65"/>
  <circle cx="457.9" cy="67.5" r="1.10" fill="#F5E6C8" opacity="0.59"/>
  <circle cx="133.9" cy="155.0" r="1.06" fill="#F5E6C8" opacity="0.78"/>
  <circle cx="316.1" cy="123.0" r="0.70" fill="#F5E6C8" opacity="0.40"/>
  <circle cx="647.3" cy="28.0" r="0.92" fill="#F5E6C8" opacity="0.59"/>
  <circle cx="0.7" cy="221.8" r="1.04" fill="#F5E6C8" opacity="0.78"/>
  <circle cx="369.0" cy="137.0" r="1.06" fill="#F5E6C8" opacity="0.35"/>
  <circle cx="583.2" cy="35.9" r="0.36" fill="#F5E6C8" opacity="0.72"/>
  <circle cx="659.8" cy="11.1" r="0.51" fill="#F5E6C8" opacity="0.78"/>
  <circle cx="507.8" cy="52.8" r="0.88" fill="#F5E6C8" opacity="0.41"/>
  <circle cx="374.1" cy="119.7" r="1.10" fill="#F5E6C8" opacity="0.66"/>
  <circle cx="525.7" cy="28.9" r="0.48" fill="#F5E6C8" opacity="0.49"/>
  <circle cx="276.1" cy="128.9" r="0.80" fill="#F5E6C8" opacity="0.43"/>
  <circle cx="257.1" cy="168.7" r="0.76" fill="#F5E6C8" opacity="0.56"/>
  <circle cx="517.3" cy="52.2" r="0.64" fill="#F5E6C8" opacity="0.56"/>
  <circle cx="118.1" cy="126.5" r="0.62" fill="#F5E6C8" opacity="0.49"/>
  <circle cx="538.3" cy="49.9" r="0.64" fill="#F5E6C8" opacity="0.45"/>
  <circle cx="299.8" cy="140.2" r="0.99" fill="#F5E6C8" opacity="0.60"/>
  <circle cx="60.7" cy="191.7" r="1.10" fill="#F5E6C8" opacity="0.76"/>
  <circle cx="199.6" cy="135.1" r="0.69" fill="#F5E6C8" opacity="0.42"/>
  <circle cx="481.2" cy="75.6" r="1.09" fill="#F5E6C8" opacity="0.45"/>
  <circle cx="666.9" cy="229.9" r="0.49" fill="#F5E6C8" opacity="0.47"/>
  <circle cx="695.0" cy="173.5" r="1.20" fill="#F5E6C8" opacity="0.29"/>
  <circle cx="603.4" cy="272.9" r="0.49" fill="#F5E6C8" opacity="0.97"/>
  <circle cx="223.0" cy="190.4" r="1.11" fill="#F5E6C8" opacity="0.43"/>
  <circle cx="1068.3" cy="78.8" r="1.01" fill="#F5E6C8" opacity="0.71"/>
  <circle cx="700.4" cy="167.3" r="1.42" fill="#F5E6C8" opacity="0.40"/>
  <circle cx="286.4" cy="126.7" r="1.11" fill="#F5E6C8" opacity="0.47"/>
  <circle cx="902.2" cy="23.2" r="0.85" fill="#F5E6C8" opacity="1.00"/>
  <circle cx="87.9" cy="68.2" r="0.62" fill="#F5E6C8" opacity="0.95"/>
  <circle cx="1055.1" cy="118.2" r="0.49" fill="#F5E6C8" opacity="0.88"/>
  <circle cx="734.0" cy="315.9" r="1.08" fill="#F5E6C8" opacity="0.26"/>
  <circle cx="359.3" cy="212.3" r="1.43" fill="#F5E6C8" opacity="0.35"/>
  <circle cx="128.4" cy="177.0" r="0.63" fill="#F5E6C8" opacity="0.70"/>
  <circle cx="244.3" cy="203.0" r="0.62" fill="#F5E6C8" opacity="0.62"/>
  <circle cx="1015.3" cy="29.5" r="0.81" fill="#F5E6C8" opacity="0.46"/>
  <circle cx="925.3" cy="203.9" r="0.61" fill="#F5E6C8" opacity="0.81"/>
  <circle cx="513.2" cy="3.1" r="0.39" fill="#F5E6C8" opacity="0.91"/>
  <circle cx="654.7" cy="267.1" r="1.00" fill="#F5E6C8" opacity="0.36"/>
  <circle cx="369.9" cy="287.7" r="1.26" fill="#F5E6C8" opacity="0.90"/>
  <circle cx="252.1" cy="79.8" r="0.42" fill="#F5E6C8" opacity="0.84"/>
  <circle cx="487.7" cy="198.6" r="0.49" fill="#F5E6C8" opacity="0.95"/>
  <circle cx="1171.4" cy="259.4" r="1.36" fill="#F5E6C8" opacity="0.27"/>
  <circle cx="398.6" cy="297.9" r="1.26" fill="#F5E6C8" opacity="0.90"/>
  <circle cx="320.2" cy="252.0" r="0.43" fill="#F5E6C8" opacity="0.90"/>
  <circle cx="266.9" cy="261.3" r="0.85" fill="#F5E6C8" opacity="0.48"/>
  <circle cx="273.1" cy="7.6" r="0.53" fill="#F5E6C8" opacity="0.50"/>
  <circle cx="1160.3" cy="89.3" r="1.07" fill="#F5E6C8" opacity="0.55"/>
  <circle cx="643.5" cy="300.6" r="0.44" fill="#F5E6C8" opacity="0.98"/>
  <circle cx="1155.0" cy="84.9" r="0.43" fill="#F5E6C8" opacity="0.58"/>
  <circle cx="376.4" cy="194.0" r="0.91" fill="#F5E6C8" opacity="0.54"/>
  <circle cx="305.7" cy="226.8" r="0.30" fill="#F5E6C8" opacity="0.94"/>
  <g opacity="0.52"><circle cx="863.3" cy="237.4" r="1.10" fill="#F5E6C8"/><path d="M859.4,237.4 L867.2,237.4 M863.3,233.6 L863.3,241.3" stroke="#F5E6C8" stroke-width="0.35" opacity="0.6"/></g>
  <circle cx="797.1" cy="105.7" r="0.68" fill="#F5E6C8" opacity="0.89"/>
  <circle cx="360.4" cy="99.0" r="0.79" fill="#F5E6C8" opacity="0.55"/>
  <circle cx="152.7" cy="134.5" r="1.43" fill="#F5E6C8" opacity="0.76"/>
  <circle cx="738.6" cy="96.3" r="0.96" fill="#F5E6C8" opacity="0.25"/>
  <circle cx="515.9" cy="185.6" r="1.09" fill="#F5E6C8" opacity="0.60"/>
  <circle cx="256.4" cy="151.4" r="1.38" fill="#F5E6C8" opacity="0.85"/>
  <circle cx="101.8" cy="164.9" r="1.06" fill="#F5E6C8" opacity="0.50"/>
  <circle cx="901.4" cy="215.3" r="0.57" fill="#F5E6C8" opacity="0.40"/>
  <circle cx="293.8" cy="152.0" r="1.32" fill="#F5E6C8" opacity="0.30"/>
  <circle cx="755.7" cy="62.2" r="1.14" fill="#F5E6C8" opacity="0.62"/>
  <circle cx="787.3" cy="1.8" r="1.20" fill="#F5E6C8" opacity="0.83"/>
  <g opacity="0.64"><circle cx="510.2" cy="56.3" r="1.45" fill="#F5E6C8"/><path d="M505.1,56.3 L515.2,56.3 M510.2,51.2 L510.2,61.4" stroke="#F5E6C8" stroke-width="0.35" opacity="0.6"/></g>
  <circle cx="299.0" cy="271.5" r="0.85" fill="#F5E6C8" opacity="0.85"/>
  <circle cx="1185.5" cy="190.5" r="1.44" fill="#F5E6C8" opacity="0.92"/>
  <circle cx="863.1" cy="161.5" r="1.30" fill="#F5E6C8" opacity="0.66"/>
  <circle cx="892.4" cy="151.9" r="0.61" fill="#F5E6C8" opacity="0.44"/>
  <g opacity="0.46"><circle cx="919.0" cy="166.8" r="1.05" fill="#F5E6C8"/><path d="M915.3,166.8 L922.7,166.8 M919.0,163.1 L919.0,170.5" stroke="#F5E6C8" stroke-width="0.35" opacity="0.6"/></g>
  <circle cx="342.9" cy="86.9" r="0.68" fill="#F5E6C8" opacity="0.66"/>
  <circle cx="277.5" cy="222.1" r="1.15" fill="#F5E6C8" opacity="0.30"/>
  <circle cx="651.1" cy="133.0" r="0.55" fill="#F5E6C8" opacity="0.57"/>
  <circle cx="700.9" cy="222.6" r="1.33" fill="#F5E6C8" opacity="0.82"/>
  <circle cx="7.1" cy="112.6" r="1.20" fill="#F5E6C8" opacity="0.89"/>
  <circle cx="502.8" cy="239.2" r="0.96" fill="#F5E6C8" opacity="0.70"/>
  <circle cx="263.3" cy="139.5" r="0.33" fill="#F5E6C8" opacity="0.50"/>
  <circle cx="485.2" cy="52.8" r="0.86" fill="#F5E6C8" opacity="0.35"/>
  <circle cx="32.4" cy="126.1" r="0.98" fill="#F5E6C8" opacity="0.27"/>
  <circle cx="162.8" cy="147.7" r="0.36" fill="#F5E6C8" opacity="0.53"/>
  <circle cx="392.2" cy="243.6" r="0.75" fill="#F5E6C8" opacity="0.81"/>
  <circle cx="302.7" cy="26.2" r="0.32" fill="#F5E6C8" opacity="0.65"/>
  <circle cx="420.0" cy="208.0" r="1.24" fill="#F5E6C8" opacity="0.74"/>
  <circle cx="1139.5" cy="63.8" r="0.32" fill="#F5E6C8" opacity="0.36"/>
  <circle cx="803.4" cy="180.5" r="0.56" fill="#F5E6C8" opacity="0.77"/>
  <circle cx="201.3" cy="194.3" r="1.20" fill="#F5E6C8" opacity="0.34"/>
  <circle cx="1157.7" cy="34.6" r="0.33" fill="#F5E6C8" opacity="0.48"/>
  <circle cx="1149.8" cy="126.9" r="1.16" fill="#F5E6C8" opacity="0.31"/>
  <circle cx="752.7" cy="32.6" r="1.23" fill="#F5E6C8" opacity="0.89"/>
  <circle cx="145.3" cy="314.8" r="1.24" fill="#F5E6C8" opacity="0.51"/>
  <circle cx="444.7" cy="161.9" r="0.71" fill="#F5E6C8" opacity="0.89"/>
  <line x1="70" y1="28" x2="250" y2="150" stroke="#F5E6C8" stroke-width="1.1" stroke-linecap="round" opacity="0.55"/>
  <line x1="80" y1="30" x2="120" y2="58" stroke="#F5E6C8" stroke-width="2" stroke-linecap="round" opacity="0.9"/>
  <line x1="920" y1="18" x2="1060" y2="100" stroke="#F5E6C8" stroke-width="0.9" stroke-linecap="round" opacity="0.5"/>
  <g stroke="#C9A86A" stroke-width="0.65" stroke-opacity="0.55" fill="none">
    <line x1="975" y1="55" x2="1040" y2="88"/>
    <line x1="1040" y1="88" x2="1095" y2="68"/>
    <line x1="1095" y1="68" x2="1140" y2="108"/>
    <line x1="1040" y1="88" x2="1078" y2="142"/>
    <line x1="1078" y1="142" x2="1135" y2="162"/>
    <line x1="1078" y1="142" x2="1015" y2="172"/>
  </g>
  <g fill="#F5E6C8">
    <circle cx="975" cy="55" r="2.2"/>
    <circle cx="1040" cy="88" r="2.8"/>
    <circle cx="1095" cy="68" r="2.0"/>
    <circle cx="1140" cy="108" r="2.4"/>
    <circle cx="1078" cy="142" r="3.0"/>
    <circle cx="1135" cy="162" r="2.0"/>
    <circle cx="1015" cy="172" r="2.2"/>
  </g>
  <text x="600" y="168" text-anchor="middle" font-family="Georgia, 'Times New Roman', 'Noto Serif SC', serif" font-size="60" font-weight="500" fill="#F5E6C8" letter-spacing="3">badhope<tspan fill="#C9A86A" font-weight="600">/</tspan>weed33834</text>
  <text x="600" y="206" text-anchor="middle" font-family="Georgia, 'Noto Serif SC', serif" font-size="20" font-style="italic" fill="#8B92A8" letter-spacing="7">夜 观 星 象 · 以 代 码 作 舟</text>
  <line x1="430" y1="246" x2="588" y2="246" stroke="#C9A86A" stroke-width="0.5" stroke-opacity="0.55"/>
  <line x1="612" y1="246" x2="770" y2="246" stroke="#C9A86A" stroke-width="0.5" stroke-opacity="0.55"/>
  <path d="M594 240 L600 246 L594 252 M606 240 L600 246 L606 252" fill="none" stroke="#C9A86A" stroke-width="0.7" stroke-opacity="0.8"/>
  <circle cx="600" cy="246" r="1.6" fill="#C9A86A"/>
</svg>