<svg xmlns="http://www.w3.org/2000/svg" viewBox="0 0 400 20" width="240" height="12">
  <line x1="20" y1="10" x2="170" y2="10" stroke="#C9A86A" stroke-width="0.4" stroke-opacity="0.5"/>
  <line x1="230" y1="10" x2="380" y2="10" stroke="#C9A86A" stroke-width="0.4" stroke-opacity="0.5"/>
  <circle cx="68.6" cy="10" r="0.90" fill="#C9A86A" opacity="0.87"/><circle cx="42.6" cy="10" r="0.86" fill="#C9A86A" opacity="0.54"/><circle cx="117.6" cy="10" r="1.18" fill="#C9A86A" opacity="0.33"/><circle cx="30.9" cy="10" r="1.09" fill="#C9A86A" opacity="0.47"/><circle cx="100.4" cy="10" r="0.52" fill="#C9A86A" opacity="0.37"/><circle cx="74.9" cy="10" r="0.65" fill="#C9A86A" opacity="0.79"/><circle cx="28.7" cy="10" r="0.54" fill="#C9A86A" opacity="0.65"/><circle cx="96.1" cy="10" r="0.91" fill="#C9A86A" opacity="0.52"/><circle cx="235.6" cy="10" r="0.84" fill="#C9A86A" opacity="0.34"/><circle cx="295.0" cy="10" r="0.45" fill="#C9A86A" opacity="0.42"/><circle cx="240.5" cy="10" r="0.94" fill="#C9A86A" opacity="0.56"/><circle cx="243.6" cy="10" r="0.65" fill="#C9A86A" opacity="0.65"/><circle cx="293.7" cy="10" r="0.76" fill="#C9A86A" opacity="0.48"/><circle cx="354.0" cy="10" r="1.04" fill="#C9A86A" opacity="0.72"/><circle cx="248.6" cy="10" r="0.60" fill="#C9A86A" opacity="0.64"/><circle cx="263.5" cy="10" r="0.82" fill="#C9A86A" opacity="0.83"/>
  <path d="M190 6 L200 10 L190 14 M210 6 L200 10 L210 14" fill="none" stroke="#C9A86A" stroke-width="0.7"/>
  <circle cx="200" cy="10" r="1.4" fill="#C9A86A"/>
</svg>